<svg width="21" height="17" viewBox="0 0 21 17" fill="none" xmlns="http://www.w3.org/2000/svg">
<path d="M0.75 2.0625C0.75 1.13086 1.50586 0.375 2.4375 0.375H5.8125C6.74414 0.375 7.5 1.13086 7.5 2.0625V2.625H14.25V2.0625C14.25 1.13086 15.0059 0.375 15.9375 0.375H19.3125C20.2441 0.375 21 1.13086 21 2.0625V5.4375C21 6.36914 20.2441 7.125 19.3125 7.125H15.9375C15.0059 7.125 14.25 6.36914 14.25 5.4375V4.875H7.5V5.4375C7.5 5.49727 7.49648 5.55703 7.48945 5.61328L10.3125 9.375H13.6875C14.6191 9.375 15.375 10.1309 15.375 11.0625V14.4375C15.375 15.3691 14.6191 16.125 13.6875 16.125H10.3125C9.38086 16.125 8.625 15.3691 8.625 14.4375V11.0625C8.625 11.0027 8.62852 10.943 8.63555 10.8867L5.8125 7.125H2.4375C1.50586 7.125 0.75 6.36914 0.75 5.4375V2.0625Z" fill="#2563EB"/>
</svg>
