<svg width="12" height="13" viewBox="0 0 12 13" fill="none" xmlns="http://www.w3.org/2000/svg">
<path d="M4.3125 0.5C5.03672 0.5 5.625 1.08828 5.625 1.8125V11.1875C5.625 11.9117 5.03672 12.5 4.3125 12.5C3.63516 12.5 3.07734 11.9867 3.00703 11.3258C2.88516 11.3586 2.75625 11.375 2.625 11.375C1.79766 11.375 1.125 10.7023 1.125 9.875C1.125 9.70156 1.15547 9.53281 1.20937 9.37812C0.501562 9.11094 0 8.42656 0 7.625C0 6.87734 0.438281 6.23047 1.07344 5.93047C0.869531 5.675 0.75 5.35156 0.75 5C0.75 4.28047 1.25625 3.68047 1.93125 3.53281C1.89375 3.40391 1.875 3.26562 1.875 3.125C1.875 2.42422 2.35781 1.83359 3.00703 1.66953C3.07734 1.01328 3.63516 0.5 4.3125 0.5ZM7.6875 0.5C8.36484 0.5 8.92031 1.01328 8.99297 1.66953C9.64453 1.83359 10.125 2.42188 10.125 3.125C10.125 3.26562 10.1062 3.40391 10.0688 3.53281C10.7438 3.67812 11.25 4.28047 11.25 5C11.25 5.35156 11.1305 5.675 10.9266 5.93047C11.5617 6.23047 12 6.87734 12 7.625C12 8.42656 11.4984 9.11094 10.7906 9.37812C10.8445 9.53281 10.875 9.70156 10.875 9.875C10.875 10.7023 10.2023 11.375 9.375 11.375C9.24375 11.375 9.11484 11.3586 8.99297 11.3258C8.92266 11.9867 8.36484 12.5 7.6875 12.5C6.96328 12.5 6.375 11.9117 6.375 11.1875V1.8125C6.375 1.08828 6.96328 0.5 7.6875 0.5Z" fill="white"/>
</svg>
