<svg width="15" height="13" viewBox="0 0 15 13" fill="none" xmlns="http://www.w3.org/2000/svg">
<path d="M4.74883 1.52188L4.46445 2.375H2.42188C1.45664 2.375 0.671875 3.15977 0.671875 4.125V11.125C0.671875 12.0902 1.45664 12.875 2.42188 12.875H12.9219C13.8871 12.875 14.6719 12.0902 14.6719 11.125V4.125C14.6719 3.15977 13.8871 2.375 12.9219 2.375H10.8793L10.5949 1.52188C10.4172 0.985938 9.9168 0.625 9.35078 0.625H5.99297C5.42695 0.625 4.92656 0.985938 4.74883 1.52188ZM7.67188 5C8.36807 5 9.03575 5.27656 9.52803 5.76884C10.0203 6.26113 10.2969 6.92881 10.2969 7.625C10.2969 8.32119 10.0203 8.98887 9.52803 9.48116C9.03575 9.97344 8.36807 10.25 7.67188 10.25C6.97568 10.25 6.308 9.97344 5.81572 9.48116C5.32344 8.98887 5.04688 8.32119 5.04688 7.625C5.04688 6.92881 5.32344 6.26113 5.81572 5.76884C6.308 5.27656 6.97568 5 7.67188 5Z" fill="white"/>
</svg>
