<svg width="18" height="19" viewBox="0 0 18 19" fill="none" xmlns="http://www.w3.org/2000/svg">
<path d="M9 18.25C11.3869 18.25 13.6761 17.3018 15.364 15.614C17.0518 13.9261 18 11.6369 18 9.25C18 6.86305 17.0518 4.57387 15.364 2.88604C13.6761 1.19821 11.3869 0.25 9 0.25C6.61305 0.25 4.32387 1.19821 2.63604 2.88604C0.948212 4.57387 0 6.86305 0 9.25C0 11.6369 0.948212 13.9261 2.63604 15.614C4.32387 17.3018 6.61305 18.25 9 18.25ZM8.15625 12.3438V10.0938H5.90625C5.43867 10.0938 5.0625 9.71758 5.0625 9.25C5.0625 8.78242 5.43867 8.40625 5.90625 8.40625H8.15625V6.15625C8.15625 5.68867 8.53242 5.3125 9 5.3125C9.46758 5.3125 9.84375 5.68867 9.84375 6.15625V8.40625H12.0938C12.5613 8.40625 12.9375 8.78242 12.9375 9.25C12.9375 9.71758 12.5613 10.0938 12.0938 10.0938H9.84375V12.3438C9.84375 12.8113 9.46758 13.1875 9 13.1875C8.53242 13.1875 8.15625 12.8113 8.15625 12.3438Z" fill="white"/>
</svg>
