<svg viewBox="0 0 11 13" fill="none" xmlns="http://www.w3.org/2000/svg">
<g clip-path="url(#clip0_61_666)">
<path d="M2.25 1V1.75H1.125C0.503906 1.75 0 2.25391 0 2.875V4H10.5V2.875C10.5 2.25391 9.99609 1.75 9.375 1.75H8.25V1C8.25 0.585156 7.91484 0.25 7.5 0.25C7.08516 0.25 6.75 0.585156 6.75 1V1.75H3.75V1C3.75 0.585156 3.41484 0.25 3 0.25C2.58516 0.25 2.25 0.585156 2.25 1ZM10.5 4.75H0V11.125C0 11.7461 0.503906 12.25 1.125 12.25H9.375C9.99609 12.25 10.5 11.7461 10.5 11.125V4.75Z" fill="#94A3B8"/>
</g>
<defs>
<clipPath id="clip0_61_666">
<path d="M0 0.25H10.5V12.25H0V0.25Z" fill="white"/>
</clipPath>
</defs>
</svg>
