<svg width="16" height="19" viewBox="0 0 16 19" fill="none" xmlns="http://www.w3.org/2000/svg">
<path d="M4.75 0.25C5.37227 0.25 5.875 0.752734 5.875 1.375V2.5H10.375V1.375C10.375 0.752734 10.8777 0.25 11.5 0.25C12.1223 0.25 12.625 0.752734 12.625 1.375V2.5H14.3125C15.2441 2.5 16 3.25586 16 4.1875V5.875H0.25V4.1875C0.25 3.25586 1.00586 2.5 1.9375 2.5H3.625V1.375C3.625 0.752734 4.12773 0.25 4.75 0.25ZM0.25 7H16V16.5625C16 17.4941 15.2441 18.25 14.3125 18.25H1.9375C1.00586 18.25 0.25 17.4941 0.25 16.5625V7ZM2.5 9.8125V10.9375C2.5 11.2469 2.75312 11.5 3.0625 11.5H4.1875C4.49688 11.5 4.75 11.2469 4.75 10.9375V9.8125C4.75 9.50312 4.49688 9.25 4.1875 9.25H3.0625C2.75312 9.25 2.5 9.50312 2.5 9.8125ZM7 9.8125V10.9375C7 11.2469 7.25312 11.5 7.5625 11.5H8.6875C8.99688 11.5 9.25 11.2469 9.25 10.9375V9.8125C9.25 9.50312 8.99688 9.25 8.6875 9.25H7.5625C7.25312 9.25 7 9.50312 7 9.8125ZM12.0625 9.25C11.7531 9.25 11.5 9.50312 11.5 9.8125V10.9375C11.5 11.2469 11.7531 11.5 12.0625 11.5H13.1875C13.4969 11.5 13.75 11.2469 13.75 10.9375V9.8125C13.75 9.50312 13.4969 9.25 13.1875 9.25H12.0625ZM2.5 14.3125V15.4375C2.5 15.7469 2.75312 16 3.0625 16H4.1875C4.49688 16 4.75 15.7469 4.75 15.4375V14.3125C4.75 14.0031 4.49688 13.75 4.1875 13.75H3.0625C2.75312 13.75 2.5 14.0031 2.5 14.3125ZM7.5625 13.75C7.25312 13.75 7 14.0031 7 14.3125V15.4375C7 15.7469 7.25312 16 7.5625 16H8.6875C8.99688 16 9.25 15.7469 9.25 15.4375V14.3125C9.25 14.0031 8.99688 13.75 8.6875 13.75H7.5625ZM11.5 14.3125V15.4375C11.5 15.7469 11.7531 16 12.0625 16H13.1875C13.4969 16 13.75 15.7469 13.75 15.4375V14.3125C13.75 14.0031 13.4969 13.75 13.1875 13.75H12.0625C11.7531 13.75 11.5 14.0031 11.5 14.3125Z" fill="#DC2626"/>
</svg>
