<svg width="15" height="15" viewBox="0 0 15 15" fill="none" xmlns="http://www.w3.org/2000/svg">
<path d="M13.6453 1.34365C13.0465 0.744824 12.0785 0.744824 11.4797 1.34365L10.6566 2.16396L13.3336 4.84092L14.1566 4.01787C14.7555 3.41904 14.7555 2.45107 14.1566 1.85225L13.6453 1.34365ZM5.46406 7.35928C5.29727 7.52607 5.16875 7.73115 5.09492 7.95811L4.28555 10.3862C4.20625 10.6214 4.26914 10.8812 4.44414 11.0589C4.61914 11.2366 4.87891 11.2968 5.1168 11.2175L7.54492 10.4081C7.76914 10.3343 7.97422 10.2058 8.14375 10.039L12.7184 5.46162L10.0387 2.78193L5.46406 7.35928ZM3.375 2.50029C1.92578 2.50029 0.75 3.67607 0.75 5.12529V12.1253C0.75 13.5745 1.92578 14.7503 3.375 14.7503H10.375C11.8242 14.7503 13 13.5745 13 12.1253V9.50029C13 9.01631 12.609 8.62529 12.125 8.62529C11.641 8.62529 11.25 9.01631 11.25 9.50029V12.1253C11.25 12.6093 10.859 13.0003 10.375 13.0003H3.375C2.89102 13.0003 2.5 12.6093 2.5 12.1253V5.12529C2.5 4.64131 2.89102 4.25029 3.375 4.25029H6C6.48398 4.25029 6.875 3.85928 6.875 3.37529C6.875 2.89131 6.48398 2.50029 6 2.50029H3.375Z" fill="#0284C7"/>
</svg>
