<svg width="10" height="12" viewBox="0 0 10 12" fill="none" xmlns="http://www.w3.org/2000/svg">
<path d="M1.625 0C1.00391 0 0.5 0.503906 0.5 1.125V10.875C0.5 11.4961 1.00391 12 1.625 12H3.875V10.125C3.875 9.50391 4.37891 9 5 9C5.62109 9 6.125 9.50391 6.125 10.125V12H8.375C8.99609 12 9.5 11.4961 9.5 10.875V1.125C9.5 0.503906 8.99609 0 8.375 0H1.625ZM2 5.625C2 5.41875 2.16875 5.25 2.375 5.25H3.125C3.33125 5.25 3.5 5.41875 3.5 5.625V6.375C3.5 6.58125 3.33125 6.75 3.125 6.75H2.375C2.16875 6.75 2 6.58125 2 6.375V5.625ZM4.625 5.25H5.375C5.58125 5.25 5.75 5.41875 5.75 5.625V6.375C5.75 6.58125 5.58125 6.75 5.375 6.75H4.625C4.41875 6.75 4.25 6.58125 4.25 6.375V5.625C4.25 5.41875 4.41875 5.25 4.625 5.25ZM6.5 5.625C6.5 5.41875 6.66875 5.25 6.875 5.25H7.625C7.83125 5.25 8 5.41875 8 5.625V6.375C8 6.58125 7.83125 6.75 7.625 6.75H6.875C6.66875 6.75 6.5 6.58125 6.5 6.375V5.625ZM2.375 2.25H3.125C3.33125 2.25 3.5 2.41875 3.5 2.625V3.375C3.5 3.58125 3.33125 3.75 3.125 3.75H2.375C2.16875 3.75 2 3.58125 2 3.375V2.625C2 2.41875 2.16875 2.25 2.375 2.25ZM4.25 2.625C4.25 2.41875 4.41875 2.25 4.625 2.25H5.375C5.58125 2.25 5.75 2.41875 5.75 2.625V3.375C5.75 3.58125 5.58125 3.75 5.375 3.75H4.625C4.41875 3.75 4.25 3.58125 4.25 3.375V2.625ZM6.875 2.25H7.625C7.83125 2.25 8 2.41875 8 2.625V3.375C8 3.58125 7.83125 3.75 7.625 3.75H6.875C6.66875 3.75 6.5 3.58125 6.5 3.375V2.625C6.5 2.41875 6.66875 2.25 6.875 2.25Z" fill="#16A34A"/>
</svg>
