<svg width="12" height="11" viewBox="0 0 12 11" fill="none" xmlns="http://www.w3.org/2000/svg">
<path d="M12 5.125C12 7.81797 9.31402 10 5.99996 10C5.13043 10 4.30543 9.85 3.56012 9.58047C3.28121 9.78438 2.82653 10.0633 2.28746 10.2977C1.72496 10.5414 1.04762 10.75 0.374963 10.75C0.222619 10.75 0.0866814 10.6586 0.0280876 10.518C-0.0305061 10.3773 0.00230636 10.218 0.107775 10.1102L0.114806 10.1031C0.121838 10.0961 0.131213 10.0867 0.145275 10.0703C0.171056 10.0422 0.2109 9.99766 0.260119 9.93672C0.356213 9.81953 0.485119 9.64609 0.616369 9.43047C0.850744 9.04141 1.0734 8.53047 1.11793 7.95625C0.414806 7.15937 -3.73804e-05 6.18203 -3.73804e-05 5.125C-3.73804e-05 2.43203 2.6859 0.25 5.99996 0.25C9.31402 0.25 12 2.43203 12 5.125Z" fill="#2563EB"/>
</svg>
