<svg width="16" height="19" viewBox="0 0 16 19" fill="none" xmlns="http://www.w3.org/2000/svg">
<path d="M8.12506 0.25C7.50279 0.25 7.00006 0.752734 7.00006 1.375V2.05C4.43365 2.57031 2.50006 4.84141 2.50006 7.5625V8.22344C2.50006 9.87578 1.89186 11.4719 0.794981 12.7094L0.534825 13.0012C0.239513 13.3316 0.1692 13.8063 0.348497 14.2105C0.527794 14.6148 0.932091 14.875 1.37506 14.875H14.8751C15.318 14.875 15.7188 14.6148 15.9016 14.2105C16.0844 13.8063 16.0106 13.3316 15.7153 13.0012L15.4551 12.7094C14.3583 11.4719 13.7501 9.8793 13.7501 8.22344V7.5625C13.7501 4.84141 11.8165 2.57031 9.25006 2.05V1.375C9.25006 0.752734 8.74732 0.25 8.12506 0.25ZM9.71764 17.5926C10.1395 17.1707 10.3751 16.5977 10.3751 16H8.12506H5.87506C5.87506 16.5977 6.11061 17.1707 6.53248 17.5926C6.95436 18.0145 7.5274 18.25 8.12506 18.25C8.72272 18.25 9.29576 18.0145 9.71764 17.5926Z" fill="#16A34A"/>
</svg>
