<svg width="18" height="16" viewBox="0 0 18 16" fill="none" xmlns="http://www.w3.org/2000/svg">
<path d="M5.34731 0.592981C5.69536 0.905872 5.72349 1.43673 5.4106 1.78478L2.87935 4.59728C2.72466 4.76954 2.50669 4.8715 2.27466 4.87501C2.04263 4.87853 1.82114 4.79064 1.65591 4.62892L0.246143 3.22267C-0.0808106 2.8922 -0.0808106 2.35782 0.246143 2.02736C0.573096 1.69689 1.11099 1.69689 1.43794 2.02736L2.21489 2.80431L4.152 0.652747C4.46489 0.3047 4.99575 0.276575 5.3438 0.589465L5.34731 0.592981ZM5.34731 6.21798C5.69536 6.53087 5.72349 7.06173 5.4106 7.40978L2.87935 10.2223C2.72466 10.3945 2.50669 10.4965 2.27466 10.5C2.04263 10.5035 1.82114 10.4156 1.65591 10.2539L0.246143 8.84767C-0.0843262 8.5172 -0.0843262 7.98282 0.246143 7.65587C0.576611 7.32892 1.11099 7.3254 1.43794 7.65587L2.21489 8.43283L4.152 6.28126C4.46489 5.93322 4.99575 5.90509 5.3438 6.21798H5.34731ZM7.87505 2.62501C7.87505 2.00275 8.37778 1.50001 9.00005 1.50001H16.875C17.4973 1.50001 18 2.00275 18 2.62501C18 3.24728 17.4973 3.75001 16.875 3.75001H9.00005C8.37778 3.75001 7.87505 3.24728 7.87505 2.62501ZM7.87505 8.25001C7.87505 7.62775 8.37778 7.12501 9.00005 7.12501H16.875C17.4973 7.12501 18 7.62775 18 8.25001C18 8.87228 17.4973 9.37501 16.875 9.37501H9.00005C8.37778 9.37501 7.87505 8.87228 7.87505 8.25001ZM5.62505 13.875C5.62505 13.2527 6.12778 12.75 6.75005 12.75H16.875C17.4973 12.75 18 13.2527 18 13.875C18 14.4973 17.4973 15 16.875 15H6.75005C6.12778 15 5.62505 14.4973 5.62505 13.875ZM1.68755 12.1875C2.1351 12.1875 2.56432 12.3653 2.88079 12.6818C3.19726 12.9982 3.37505 13.4275 3.37505 13.875C3.37505 14.3226 3.19726 14.7518 2.88079 15.0683C2.56432 15.3847 2.1351 15.5625 1.68755 15.5625C1.24 15.5625 0.810774 15.3847 0.494306 15.0683C0.177838 14.7518 4.88181e-05 14.3226 4.88181e-05 13.875C4.88181e-05 13.4275 0.177838 12.9982 0.494306 12.6818C0.810774 12.3653 1.24 12.1875 1.68755 12.1875Z" fill="#EA580C"/>
</svg>
