<svg width="11" height="13" viewBox="0 0 11 13" fill="none" xmlns="http://www.w3.org/2000/svg">
<path d="M5.25 6.25C6.04565 6.25 6.80871 5.93393 7.37132 5.37132C7.93393 4.80871 8.25 4.04565 8.25 3.25C8.25 2.45435 7.93393 1.69129 7.37132 1.12868C6.80871 0.566071 6.04565 0.25 5.25 0.25C4.45435 0.25 3.69129 0.566071 3.12868 1.12868C2.56607 1.69129 2.25 2.45435 2.25 3.25C2.25 4.04565 2.56607 4.80871 3.12868 5.37132C3.69129 5.93393 4.45435 6.25 5.25 6.25ZM4.17891 7.375C1.87031 7.375 0 9.24531 0 11.5539C0 11.9383 0.311719 12.25 0.696094 12.25H9.80391C10.1883 12.25 10.5 11.9383 10.5 11.5539C10.5 9.24531 8.62969 7.375 6.32109 7.375H4.17891Z" fill="#94A3B8"/>
</svg>
