<svg width="20" height="19" viewBox="0 0 20 19" fill="none" xmlns="http://www.w3.org/2000/svg">
<path d="M9.6875 8.6875V0.833594C9.6875 0.517188 9.93359 0.25 10.25 0.25C14.5988 0.25 18.125 3.77617 18.125 8.125C18.125 8.44141 17.8578 8.6875 17.5414 8.6875H9.6875ZM0.125 9.8125C0.125 5.54805 3.29258 2.01836 7.40234 1.45586C7.72578 1.41016 8 1.67031 8 1.99727V10.375L13.502 15.877C13.7375 16.1125 13.7199 16.4992 13.4492 16.6891C12.0711 17.6734 10.3836 18.25 8.5625 18.25C3.9043 18.25 0.125 14.4742 0.125 9.8125ZM18.6313 10.375C18.9582 10.375 19.2148 10.6492 19.1727 10.9727C18.902 12.9379 17.9563 14.6852 16.5746 15.9754C16.3637 16.1723 16.0332 16.1582 15.8293 15.9508L10.25 10.375H18.6313Z" fill="#0EA5E9"/>
</svg>
