<svg width="18" height="16" viewBox="0 0 18 16" fill="none" xmlns="http://www.w3.org/2000/svg">
<path d="M1.40625 0.9375C0.938672 0.9375 0.5625 1.31367 0.5625 1.78125V3.46875C0.5625 3.93633 0.938672 4.3125 1.40625 4.3125H3.09375C3.56133 4.3125 3.9375 3.93633 3.9375 3.46875V1.78125C3.9375 1.31367 3.56133 0.9375 3.09375 0.9375H1.40625ZM6.75 1.5C6.12773 1.5 5.625 2.00273 5.625 2.625C5.625 3.24727 6.12773 3.75 6.75 3.75H16.875C17.4973 3.75 18 3.24727 18 2.625C18 2.00273 17.4973 1.5 16.875 1.5H6.75ZM6.75 7.125C6.12773 7.125 5.625 7.62773 5.625 8.25C5.625 8.87227 6.12773 9.375 6.75 9.375H16.875C17.4973 9.375 18 8.87227 18 8.25C18 7.62773 17.4973 7.125 16.875 7.125H6.75ZM6.75 12.75C6.12773 12.75 5.625 13.2527 5.625 13.875C5.625 14.4973 6.12773 15 6.75 15H16.875C17.4973 15 18 14.4973 18 13.875C18 13.2527 17.4973 12.75 16.875 12.75H6.75ZM0.5625 7.40625V9.09375C0.5625 9.56133 0.938672 9.9375 1.40625 9.9375H3.09375C3.56133 9.9375 3.9375 9.56133 3.9375 9.09375V7.40625C3.9375 6.93867 3.56133 6.5625 3.09375 6.5625H1.40625C0.938672 6.5625 0.5625 6.93867 0.5625 7.40625ZM1.40625 12.1875C0.938672 12.1875 0.5625 12.5637 0.5625 13.0312V14.7188C0.5625 15.1863 0.938672 15.5625 1.40625 15.5625H3.09375C3.56133 15.5625 3.9375 15.1863 3.9375 14.7188V13.0312C3.9375 12.5637 3.56133 12.1875 3.09375 12.1875H1.40625Z" fill="#0EA5E9"/>
</svg>
