<svg width="15" height="15" viewBox="0 0 15 15" fill="none" xmlns="http://www.w3.org/2000/svg">
<path d="M9.28125 10.375C11.9391 10.375 14.0938 8.22031 14.0938 5.5625C14.0938 2.90469 11.9391 0.75 9.28125 0.75C6.62344 0.75 4.46875 2.90469 4.46875 5.5625C4.46875 6.07383 4.54805 6.56875 4.6957 7.03086L0.285156 11.4414C0.162109 11.5645 0.09375 11.7312 0.09375 11.9062V14.0938C0.09375 14.4574 0.386328 14.75 0.75 14.75H2.9375C3.30117 14.75 3.59375 14.4574 3.59375 14.0938V13H4.6875C5.05117 13 5.34375 12.7074 5.34375 12.3438V11.25H6.4375C6.6125 11.25 6.7793 11.1816 6.90234 11.0586L7.81289 10.148C8.275 10.2957 8.76992 10.375 9.28125 10.375ZM10.375 3.375C10.6651 3.375 10.9433 3.49023 11.1484 3.69535C11.3535 3.90047 11.4688 4.17867 11.4688 4.46875C11.4688 4.75883 11.3535 5.03703 11.1484 5.24215C10.9433 5.44727 10.6651 5.5625 10.375 5.5625C10.0849 5.5625 9.80672 5.44727 9.6016 5.24215C9.39648 5.03703 9.28125 4.75883 9.28125 4.46875C9.28125 4.17867 9.39648 3.90047 9.6016 3.69535C9.80672 3.49023 10.0849 3.375 10.375 3.375Z" fill="white"/>
</svg>
